<?xml version="1.0" encoding="UTF-8"?>
<svg id="Capa_1" xmlns="http://www.w3.org/2000/svg" version="1.1" viewBox="0 0 1125.7 401.9">
  <!-- Generator: Adobe Illustrator 30.4.0, SVG Export Plug-In . SVG Version: 2.1.4 Build 226)  -->
  <defs>
    <style>
      .st0 {
        fill: #68b42e;
      }

      .st1 {
        isolation: isolate;
      }

      .st2 {
        fill: #fff;
      }

      .st3 {
        fill: #211915;
      }
    </style>
  </defs>
  <rect class="st0" x="337.18" y="94.5" width="410" height="76.9" transform="translate(-1.49 259.69) rotate(-26.9)"/>
  <rect class="st2" x="369.14" y="159.31" width="410" height="76.9" transform="translate(-27.35 281.16) rotate(-26.9)"/>
  <rect class="st0" x="407.2" y="227.5" width="411" height="86.5" transform="translate(-56.2 306.5) rotate(-26.9)"/>
  <polygon class="st2" points="323.3 200.9 323.3 401.9 847.4 401.9 847.4 139.3 759.9 139.3 759.9 324 410.8 324 410.8 139.3 323.3 139.3 323.3 200.9"/>
  <g class="st1">
    <g class="st1">
      <path class="st2" d="M0,270.8l.6-8.3.8-16.3.4-11.5v-8.3h6.9c1.7,0,4,0,6.9-.1,2.9,0,5.4-.1,7.4-.1,2.9,0,5.1.2,6.5.6,1.4.4,2.7.9,3.8,1.7s2.1,1.7,2.8,2.8,1.3,2.3,1.7,3.6c.4,1.4.6,2.7.6,4.1,0,2.9-.7,5.6-2.1,8-1.4,2.4-3.4,4.2-6,5.4s-5.4,1.8-8.6,1.8-2.5-.1-4.1-.4c-.2-1-.5-2.5-1-4.5s-.9-3.4-1.2-4.4c1,.2,2,.3,3,.3,2.2,0,3.8-.5,4.9-1.6s1.6-2.3,1.6-3.9-.1-1.4-.4-2c-.2-.6-.6-1-1.1-1.4s-1.1-.6-1.7-.7-1.3-.2-2.1-.2h-2.4l-2.7.2c-.3,4.2-.5,8.8-.6,14-.3,9.3-.4,14.9-.4,16.8v4.2H.2l-.2.2h0Z"/>
      <path class="st2" d="M74.2,261c-.3,1.3-.8,4.4-1.6,9.4-2.5.5-4.6.8-6.3,1-1.7.2-3.4.2-5.2.2-2.6,0-5-.2-7.1-.5s-4-1-5.6-1.9-2.9-2-4-3.4-1.9-3-2.4-4.8c-.6-1.9-.8-3.8-.8-5.8s.6-5.5,1.7-8.1c1.1-2.7,2.5-4.7,4.3-6.2,1.7-1.5,3.8-2.6,6-3.2s4.6-.9,7-.9,4.8.3,7.1.9c2.2.6,4.1,1.6,5.7,3s2.7,3,3.3,4.8c.7,1.8,1,3.7,1,5.8s-.1,2.6-.4,4.1h-22.8v1c0,2.3.8,4,2.5,5.1s3.7,1.7,6.1,1.7,3.1-.2,4.9-.5c1.8-.3,4.1-.9,6.8-1.7h-.2ZM54.2,250.5h10.7v-.9c0-1.1-.2-2.1-.6-2.9-.4-.8-1-1.4-1.7-1.8-.7-.4-1.6-.6-2.5-.6s-1.3.1-1.9.3-1.2.5-1.6.9-.9.9-1.2,1.4-.6,1-.7,1.5c-.2.5-.3,1.2-.5,2v.1Z"/>
      <path class="st2" d="M81.3,270.8l1-14.4.3-8.3v-10.5h12.4v3.7c.7-1,1.4-1.7,1.9-2.1.5-.5,1.2-.9,1.9-1.3.7-.4,1.4-.7,2.2-.8.8-.2,1.6-.3,2.4-.3s1.6.1,2.6.3c0,2.4,0,4.3.2,5.9l.2,5c-1.2-.3-2.3-.5-3.3-.5s-2.4.2-3.4.6c-.9.4-1.8,1-2.5,1.7s-1.3,1.7-1.7,2.9c-.4,1.1-.7,3-.9,5.5-.2,2.5-.3,5.3-.3,8.6s0,2.5.1,4.2h-13.1v-.2h0Z"/>
      <path class="st2" d="M109.8,270.8c.3-2.6.5-4.8.7-6.5s.3-3.9.4-6.6c.1-2.7.3-5.6.4-8.8s.2-7,.3-11.3h13.4c-.4,4.1-.6,7.7-.8,10.8-.2,3.1-.3,6.4-.3,9.9,0,6.2-.1,10.3-.1,12.6h-13.9l-.1-.1ZM111.8,233.4c.1-2.6.2-4.6.2-6.1v-1.8h13c0,.7-.1,1.2-.1,1.7l-.2,4v2.1h-12.8l-.1.1Z"/>
      <path class="st2" d="M150.1,236.8c2.7,0,5.3.4,7.8,1.2s4.6,2,6.3,3.6c1.7,1.5,3,3.4,3.8,5.4s1.2,4.3,1.2,6.7-.4,4.5-1.1,6.6c-.7,2.1-2,4.1-3.7,5.9s-3.9,3.2-6.6,4.1c-2.7.9-5.5,1.4-8.5,1.4s-5.4-.4-7.9-1.2-4.7-2-6.4-3.5-3-3.4-3.8-5.5c-.9-2.1-1.3-4.4-1.3-6.8s.4-4.6,1.3-6.8c.8-2.1,2.2-4.1,4-5.8s4-3,6.7-4c2.7-.9,5.4-1.4,8.3-1.4l-.1.1h0ZM149.9,246.3c-1.4,0-2.6.4-3.7,1.1s-1.9,1.8-2.5,3.1c-.6,1.4-.8,2.9-.8,4.5,0,2.4.6,4.2,1.8,5.5s2.7,1.9,4.5,1.9,2.6-.4,3.7-1.1c1.1-.7,1.9-1.8,2.5-3.2.6-1.4.8-2.9.8-4.6s-.2-2.6-.7-3.6c-.4-1.1-1.1-2-2.1-2.6s-2.1-1-3.5-1h0ZM144.9,232.9l1.2-2.7c.3-.6.6-1.4,1-2.2l1-2.3h13.1l-2.8,3.2c-.2.2-.7.8-1.5,1.7s-1.4,1.7-2,2.3h-10Z"/>
      <path class="st2" d="M210.6,270.8h-12.1l.2-4.1c-.8.8-1.6,1.5-2.2,2-.6.5-1.4,1-2.4,1.5s-2,.8-3.2,1.1c-1.1.3-2.3.4-3.5.4-2.1,0-4-.4-5.8-1.1s-3.4-1.8-4.6-3.2-2.2-3.1-2.9-5c-.6-1.9-.9-3.9-.9-6,0-2.9.6-5.8,1.7-8.6s2.7-5,4.5-6.6c1.9-1.6,3.9-2.7,6.3-3.4,2.3-.7,4.9-1,7.6-1s3.9.2,6.3.5c.2-2.6.3-6.2.4-10.8h13.1c-.6,6.4-1.2,14.3-1.7,23.6s-.7,16.2-.7,20.8l-.1-.1h0ZM199,245.7c-1.2-.3-2.2-.4-3.3-.4-2.1,0-3.9.4-5.4,1.2s-2.6,2.1-3.4,3.8c-.8,1.7-1.2,3.4-1.2,5.1s.2,2.4.7,3.4c.4,1,1.1,1.8,2.1,2.4.9.6,2,.9,3.1.9s2.3-.3,3.3-1,1.8-1.7,2.4-3,1-2.8,1.3-4.6c.2-1.8.4-4.4.5-7.8h-.1Z"/>
      <path class="st2" d="M217.7,270.8c.3-2.6.5-4.8.7-6.5s.3-3.9.4-6.6c.1-2.7.3-5.6.4-8.8.1-3.2.2-7,.3-11.3h13.4c-.4,4.1-.6,7.7-.8,10.8s-.3,6.4-.3,9.9c0,6.2-.1,10.3-.1,12.6h-13.9l-.1-.1h0ZM219.8,233.4c.1-2.6.2-4.6.2-6.1v-1.8h13c0,.7-.1,1.2-.1,1.7l-.2,4v2.1h-12.8l-.1.1h0Z"/>
      <path class="st2" d="M266.4,260.4c-.1.9-.4,2.5-.8,4.8l-.8,5.2c-3.4.8-6.7,1.2-10,1.2s-4.4-.2-6.2-.7c-2.1-.6-4-1.6-5.7-3-1.7-1.5-3-3.2-3.7-5.2-.9-2.4-1.4-5-1.4-7.9s.5-5.3,1.4-7.8,2.3-4.5,4-6.2c1.8-1.6,3.8-2.7,5.9-3.3,2.2-.6,4.6-.8,7.2-.8s3.1,0,4.7.2,3.5.5,5.8,1.1v.7c.1.8.2,1.6.2,2.4s.1,2.1.2,3.9l.2,2.9c-3.1-1.1-5.8-1.6-8.2-1.6s-3.2.3-4.5,1c-1.3.7-2.2,1.6-2.9,2.9-.6,1.2-.9,2.7-.9,4.3s.3,3.1.8,4.2c.6,1.1,1.4,2,2.7,2.5,1.2.6,2.5.8,4,.8s1.6,0,2.6-.2,1.9-.3,2.6-.5,1.7-.5,2.8-.9h0Z"/>
      <path class="st2" d="M291.7,236.8c2.7,0,5.3.4,7.8,1.2s4.6,2,6.3,3.6c1.7,1.5,3,3.4,3.8,5.4s1.2,4.3,1.2,6.7-.4,4.5-1.1,6.6c-.7,2.1-2,4.1-3.7,5.9s-3.9,3.2-6.6,4.1-5.5,1.4-8.5,1.4-5.4-.4-7.9-1.2-4.7-2-6.4-3.5c-1.7-1.5-3-3.4-3.8-5.5-.9-2.1-1.3-4.4-1.3-6.8s.4-4.6,1.3-6.8c.8-2.1,2.2-4.1,4-5.8s4-3,6.7-4c2.7-.9,5.4-1.4,8.3-1.4l-.1.1h0ZM291.5,246.3c-1.4,0-2.6.4-3.7,1.1s-1.9,1.8-2.5,3.1c-.6,1.4-.8,2.9-.8,4.5,0,2.4.6,4.2,1.8,5.5,1.2,1.3,2.7,1.9,4.5,1.9s2.6-.4,3.7-1.1,1.9-1.8,2.5-3.2c.6-1.4.8-2.9.8-4.6s-.2-2.6-.7-3.6c-.4-1.1-1.1-2-2.1-2.6s-2.1-1-3.5-1h0Z"/>
    </g>
  </g>
  <g class="st1">
    <g class="st1">
      <path class="st2" d="M861.9,270.6l.7-6.8,1.3-23.2.4-9.3v-5.1h16.7l13.9,25.2,1.9,3.7c.2-3.6.5-8.8.8-15.3s.4-11.1.4-13.6h12.8l-.8,9.7-1.5,26.9-.2,7.8h-16.4c-1.1-2.1-2-3.7-2.5-4.6l-5.5-9.3c-1.8-3-3.5-5.9-5-8.7-1-1.8-2-3.7-3.1-5.8l-.7,15.4-.3,13h-12.9Z"/>
      <path class="st2" d="M919.2,246.9c.4-2.1.7-3.6.8-4.4.1-.8.3-2.1.5-3.8,6.2-1.4,11.6-2,16.1-2s4.9.3,7,.9c2.1.6,3.8,1.5,5,2.8s1.8,3.1,1.8,5.5-.2,3.9-.5,8.2-.6,9.8-.7,16.7h-12.8c.3-2.4.6-7.3,1-14.8-.8.4-1.5.7-1.9.8-.5.2-1.3.4-2.5.8-1.2.3-2.1.6-2.7.9-.7.2-1.2.5-1.7.9s-.8.7-1,1.1-.3.8-.3,1.3c0,.7.3,1.4.9,1.9.6.5,1.5.8,2.8.8s.9,0,1.5-.1c.5,0,1.2-.3,2.1-.6-.6,1.7-1.4,4.1-2.2,7.3-1.9.3-3.6.5-5.3.5-2.7,0-4.9-.4-6.7-1.1s-3.2-2-4.1-3.6c-1-1.7-1.4-3.3-1.4-5s.2-2,.5-3c.4-1,.9-1.9,1.7-2.9.8-.9,1.6-1.7,2.7-2.4,1-.7,2.4-1.3,4.2-1.9,1.8-.6,4-1.1,6.7-1.7,1.1-.2,2.2-.4,3.1-.7.9-.2,1.6-.5,2-.7s.7-.4,1-.7c.2-.2.4-.5.5-.8s.2-.6.2-.9c0-.8-.3-1.5-1-1.9s-1.7-.7-3.1-.7c-3.7,0-8.3,1.1-13.8,3.2l-.4.1h0Z"/>
      <path class="st2" d="M956.4,270.6l1-14.4.3-8.3v-10.5h12.4v3.7c.7-1,1.4-1.7,1.9-2.1.5-.5,1.2-.9,1.9-1.3s1.4-.7,2.2-.8c.8-.2,1.6-.3,2.4-.3s1.6.1,2.6.3c0,2.4,0,4.3.2,5.9l.2,5c-1.2-.3-2.3-.5-3.3-.5s-2.4.2-3.4.6c-.9.4-1.8,1-2.5,1.7s-1.3,1.7-1.7,2.9c-.4,1.1-.7,3-.9,5.5-.2,2.5-.3,5.3-.3,8.6s0,2.5.1,4.2h-13.1v-.2h0Z"/>
      <path class="st2" d="M988.1,246.9c.4-2.1.7-3.6.8-4.4.1-.8.3-2.1.5-3.8,6.2-1.4,11.6-2,16.1-2s4.9.3,7,.9c2.1.6,3.8,1.5,5,2.8s1.8,3.1,1.8,5.5-.2,3.9-.5,8.2-.6,9.8-.7,16.7h-12.8c.3-2.4.6-7.3,1-14.8-.8.4-1.5.7-1.9.8-.5.2-1.3.4-2.5.8-1.2.3-2.1.6-2.7.9-.7.2-1.2.5-1.7.9s-.8.7-1,1.1-.3.8-.3,1.3c0,.7.3,1.4.9,1.9.6.5,1.5.8,2.8.8s.9,0,1.5-.1c.5,0,1.2-.3,2.1-.6-.6,1.7-1.4,4.1-2.2,7.3-1.9.3-3.6.5-5.3.5-2.7,0-4.9-.4-6.7-1.1s-3.2-2-4.1-3.6c-1-1.7-1.4-3.3-1.4-5s.2-2,.5-3c.4-1,.9-1.9,1.7-2.9.8-.9,1.6-1.7,2.7-2.4,1-.7,2.4-1.3,4.2-1.9,1.8-.6,4-1.1,6.7-1.7,1.1-.2,2.2-.4,3.1-.7.9-.2,1.6-.5,2-.7s.7-.4,1-.7c.2-.2.4-.5.5-.8s.2-.6.2-.9c0-.8-.3-1.5-1-1.9s-1.7-.7-3.1-.7c-3.7,0-8.3,1.1-13.8,3.2l-.4.1h0Z"/>
      <path class="st2" d="M1025.1,270.6c.6-4.9,1.1-10.4,1.4-16.3s.5-11.6.6-16.9h13l-.3,4.4c.7-.8,1.3-1.4,1.9-1.9.5-.5,1.2-.9,1.9-1.4s1.6-.8,2.5-1.1,1.8-.5,2.8-.7,2.1-.2,3.2-.2,3.1.2,4.6.5,2.7.8,3.7,1.4c1,.6,1.8,1.4,2.5,2.3.7.9,1.1,1.9,1.3,3,.2,1.1.3,2.2.3,3.3s0,2.6-.3,5.3l-.6,11.8c-.1,2.3-.2,4.5-.2,6.4h-13.1c.2-2,.4-4.9.6-8.8s.3-6.6.3-8.2c0-2.4-.5-4.2-1.4-5.1-.9-1-2.1-1.4-3.6-1.4s-2.4.4-3.6,1.2c-1.1.8-2,2-2.6,3.6s-1,4.2-1.3,7.8-.4,7.3-.5,11h-13.4.3,0Z"/>
      <path class="st2" d="M1085.3,237.4l-.7,16.6-.3,15.3v3.7c0,2.5-.2,4.6-.6,6.4-.4,1.7-1.1,3.1-2.3,4.2s-2.5,1.8-4.2,2.2-3.6.6-5.7.6-2.8,0-4.7-.2-3.9-.4-6.2-.8c-.1-2.4-.4-5.6-.9-9.7,1.9.6,3.6.9,5.1.9s2.3-.2,3.2-.7c.8-.3,1.4-.8,1.8-1.4s.8-1.3,1-2.3c.2-.8.4-2.3.6-4.3.3-4,.5-8.9.6-14.6.1-4.9.2-9.1.2-12.7v-3.3h13.2l-.1.1h0ZM1072.5,233.1c.2-3.2.3-5.7.4-7.7h12.8c-.2,3.2-.4,5.7-.4,7.7h-12.8Z"/>
      <path class="st2" d="M1094.6,246.9c.4-2.1.7-3.6.8-4.4.1-.8.3-2.1.5-3.8,6.2-1.4,11.6-2,16.1-2s4.9.3,7,.9c2.1.6,3.8,1.5,5,2.8s1.8,3.1,1.8,5.5-.2,3.9-.5,8.2-.6,9.8-.7,16.7h-12.8c.3-2.4.6-7.3,1-14.8-.8.4-1.5.7-1.9.8-.5.2-1.3.4-2.5.8-1.2.3-2.1.6-2.7.9-.7.2-1.2.5-1.7.9s-.8.7-1,1.1-.3.8-.3,1.3c0,.7.3,1.4.9,1.9s1.5.8,2.8.8.9,0,1.5-.1c.5,0,1.2-.3,2.1-.6-.6,1.7-1.4,4.1-2.2,7.3-1.9.3-3.6.5-5.3.5-2.7,0-4.9-.4-6.7-1.1-1.8-.7-3.2-2-4.1-3.6-1-1.7-1.4-3.3-1.4-5s.2-2,.5-3c.4-1,.9-1.9,1.7-2.9.8-.9,1.6-1.7,2.7-2.4,1-.7,2.4-1.3,4.2-1.9,1.8-.6,4-1.1,6.7-1.7,1.1-.2,2.2-.4,3.1-.7.9-.2,1.6-.5,2-.7s.7-.4,1-.7c.2-.2.4-.5.5-.8s.2-.6.2-.9c0-.8-.3-1.5-1-1.9s-1.7-.7-3.1-.7c-3.7,0-8.3,1.1-13.8,3.2l-.4.1h0Z"/>
    </g>
  </g>
  <g class="st1">
    <g class="st1">
      <path class="st3" d="M531.04,228.88c-1.32,1.9-5.16,7.23-7.79,11.1l.07.12,20.6-10.21,3.43,11.06-36.01,17.84-2.65-8.33c3.04-6.72,6.1-12.2,10.46-20.36,4.09-7.63,7.11-11.93,4.76-16.45-1.58-3.04-4.63-3.55-7.67-2.04-4.19,2.07-5.5,6.45-6.01,10.99l-10.75-.9c1.47-9.13,4.9-15.42,13.71-19.8,8.12-4.02,18.63-4.79,23.49,4.56,3.51,6.75.69,13.29-5.65,22.41h.01Z"/>
      <path class="st3" d="M546.42,218.46c-5.92-11.39-6.09-29.98,8.17-37.05,11.28-5.59,22.19.68,27.5,10.89,5.98,11.52,5.93,29.98-8.33,37.05-11.28,5.59-22.04-.68-27.33-10.89h-.01ZM568.29,196.27c-2.32-4.46-5.51-7.7-9.25-5.85-7.29,3.61-1.58,18.92,1.22,24.3,2.22,4.27,5.32,7.48,9.13,5.6,7.42-3.68,1.6-18.85-1.1-24.05h0Z"/>
      <path class="st3" d="M614.97,187.31c-1.32,1.9-5.16,7.23-7.79,11.1l.07.12,20.6-10.21,3.43,11.06-36.01,17.84-2.65-8.34c3.04-6.72,6.1-12.2,10.46-20.36,4.09-7.63,7.11-11.93,4.76-16.45-1.58-3.04-4.63-3.55-7.67-2.04-4.19,2.07-5.5,6.45-6.01,10.99l-10.75-.9c1.48-9.13,4.9-15.42,13.71-19.8,8.11-4.02,18.63-4.79,23.49,4.56,3.5,6.75.69,13.29-5.65,22.42h.01Z"/>
      <path class="st3" d="M651.84,149.81c-1.92-1.69-4.69-3.35-8.05-1.69-4.82,2.39-5.2,8.72-3.28,15.79l.13-.07c2.14-3.55,5.08-6.33,8.51-8.03,7.1-3.51,15.97-2.23,20.16,5.81,4.73,9.1.43,20.17-10.65,25.67-10.96,5.43-22.08,2.15-28-9.25-6.11-11.76-6.13-31.28,9.4-38.98,7.67-3.8,15.97-3.17,21.41,3.17l-9.62,7.57h-.01ZM643.49,172.55l.78,1.49c1.87,3.59,5.22,7.14,10.04,4.75,4.19-2.07,4.58-6.24,2.81-9.64-1.73-3.34-4.61-4.41-8.29-2.59-2.15,1.06-3.95,2.82-5.33,5.99h-.01Z"/>
    </g>
  </g>
</svg>