<?xml version="1.0" encoding="UTF-8"?>
<svg id="Capa_1" data-name="Capa 1" xmlns="http://www.w3.org/2000/svg" version="1.1" viewBox="0 0 1125.7 401.9">
  <defs>
    <style>
      .cls-1 {
        font-family: ErasITC-Bold, 'Eras Bold ITC';
        font-size: 66.6px;
        font-weight: 700;
      }

      .cls-1, .cls-2 {
        fill: #fff;
      }

      .cls-2, .cls-3 {
        stroke: #1d1d1b;
        stroke-miterlimit: 10;
      }

      .cls-3 {
        fill: #000;
      }

      .cls-4 {
        fill: #1d1d1b;
      }

      .cls-4, .cls-5 {
        stroke-width: 0px;
      }

      .cls-5 {
        fill: #68b42e;
      }
    </style>
  </defs>
  <g>
    <rect class="cls-5" x="337.2" y="94.6" width="410" height="76.9" transform="translate(-1.5 259.6) rotate(-26.9)"/>
    <rect class="cls-3" x="407.2" y="227.6" width="411" height="86.5" transform="translate(-56.2 306.4) rotate(-26.9)"/>
  </g>
  <polygon class="cls-2" points="323.3 200.9 323.3 401.9 847.4 401.9 847.4 139.3 759.9 139.3 759.9 324 410.8 324 410.8 139.3 323.3 139.3 323.3 200.9"/>
  <g>
    <path class="cls-4" d="M520.1,250.6c-.4-.9-.9-2.2-1.6-3.7-.7-1.5-1.4-3.1-2.1-4.7,1.2-2.7,2.2-5.2,3.1-7.6,1.5-3.9,2.7-7.5,3.7-10.8.8-2.6,1.4-4.9,1.8-7,.2-1.2.3-2.1.2-2.8,0-.5-.2-.9-.4-1.4-.3-.6-.7-1-1.1-1.3s-1-.4-1.7-.5c-.7,0-1.5,0-2.3.3-.9.2-1.8.6-2.8,1.1-1.4.7-2.7,1.5-4.1,2.5-1.4,1-3.2,2.5-5.5,4.4l-1.3-4.5c-.2-.9-.8-2.6-1.7-5.2,4.7-3.4,9.2-6.3,13.6-8.5,2-1,4.1-1.8,6.1-2.4,2-.6,4-.8,5.9-.7,1.9.1,3.5.6,4.9,1.4,1.3.8,2.3,1.9,3,3.2.5.9.8,1.8,1,2.8.2.9.3,2.1.3,3.5,0,1.8-.2,3.6-.6,5.5-.6,2.8-1.4,5.9-2.4,9.1-1,3.1-2.2,6.6-3.7,10.6l3.2-1.6c.8-.4,2.2-1.2,4.4-2.3,2.2-1.2,3.7-2,4.6-2.5.9-.5,1.9-1.1,3.1-1.9.4,1,.9,2.2,1.5,3.6.6,1.5,1.3,3.2,2.2,5.3-4.8,2.4-9.9,4.9-15.1,7.6-6.3,3.2-11.7,6-16.1,8.2Z"/>
    <path class="cls-4" d="M556.5,181.5c3.1-1.6,6.2-2.4,9.3-2.4,3.1,0,6.1,1,9,3.3,2.9,2.2,5.4,5.4,7.4,9.4,1.6,3.1,2.7,6.5,3.4,10,.7,3.5.8,6.6.2,9.2-.5,2.6-1.7,5-3.6,7.3-1.9,2.2-4.2,4.1-7,5.5-2.3,1.2-4.7,1.9-7.2,2.2-2.4.3-4.9,0-7.3-.9-2.4-.9-4.5-2.4-6.3-4.4-1.8-2-3.4-4.3-4.7-7-1.6-3.2-2.8-6.6-3.5-10.1-.7-3.5-.8-6.7-.2-9.4.6-2.7,1.8-5.2,3.6-7.3,1.9-2.1,4.1-3.8,6.7-5.2ZM560.7,190.1c-.9.5-1.6,1.1-2,2-.5,1.1-.8,2.3-.7,3.7,0,1.7.4,3.5,1,5.4.6,2.1,1.6,4.4,2.7,6.7,1,2,2.1,3.6,3.2,4.8,1.1,1.1,2.2,1.9,3.3,2.2,1.2.3,2.3.2,3.3-.3.6-.3,1.1-.7,1.5-1.2.4-.5.7-1.3,1-2.4.2-1.1.2-2.4,0-4.1-.3-1.6-.7-3.3-1.2-4.9-.6-1.6-1.3-3.3-2.1-4.8-1.7-3.3-3.4-5.5-5.1-6.6-1.7-1.1-3.4-1.3-4.9-.5Z"/>
    <path class="cls-4" d="M597.5,211.4c-.4-.9-.9-2.2-1.6-3.7-.7-1.5-1.4-3.1-2.1-4.7,1.2-2.7,2.2-5.2,3.1-7.6,1.5-3.9,2.7-7.5,3.7-10.8.8-2.6,1.4-4.9,1.8-7,.2-1.2.3-2.1.2-2.8,0-.5-.2-.9-.4-1.4-.3-.6-.7-1-1.1-1.3-.5-.3-1-.4-1.7-.5-.7,0-1.5,0-2.3.3-.9.2-1.8.6-2.8,1.1-1.4.7-2.7,1.5-4.1,2.5-1.4,1-3.2,2.5-5.5,4.4l-1.3-4.5c-.2-.9-.8-2.6-1.7-5.2,4.7-3.4,9.2-6.3,13.6-8.5,2-1,4.1-1.8,6.1-2.4,2-.6,4-.8,5.9-.7,1.9.1,3.5.6,4.9,1.4,1.3.8,2.3,1.9,3,3.2.5.9.8,1.8,1,2.8.2.9.3,2.1.3,3.5,0,1.8-.2,3.6-.6,5.5-.6,2.8-1.4,5.9-2.4,9.1-1,3.1-2.2,6.6-3.7,10.6l3.2-1.6c.8-.4,2.2-1.2,4.4-2.3,2.2-1.2,3.7-2,4.6-2.5s1.9-1.1,3.1-1.9c.4,1,.9,2.2,1.5,3.6.6,1.5,1.3,3.2,2.2,5.3-4.8,2.4-9.9,4.9-15.1,7.6-6.3,3.2-11.7,6-16.1,8.2Z"/>
    <path class="cls-4" d="M638.2,190l-1.7-2.8c-.5-.9-1-1.7-1.5-2.5-.5-.7-1.2-1.9-2.3-3.6,4.6-.9,8.2-2,10.8-3.3,1.4-.7,2.6-1.6,3.6-2.6,1-1,1.6-2.1,1.8-3.3.2-1.1,0-2.2-.4-3.2-.7-1.4-1.9-2.2-3.6-2.2-1.7,0-3.9.6-6.7,2-1.2.6-2.4,1.3-3.6,2-1.1.7-2.7,1.7-4.6,3l-8-19.5c-.4-1-1-2.3-1.8-3.9,4.9-2.4,9.5-4.8,14-7,5.7-2.9,10.4-5.3,14.2-7.3.8,2.1,1.5,3.7,2.1,4.9l1.9,4-3.9,1.8-1.8.9-2.8,1.4c-1.2.6-2.7,1.3-4.5,2.2-.6.3-1.6.8-2.9,1.6l2.8,6.9c1.2-.8,2.2-1.3,2.9-1.7,3-1.5,5.9-2.4,8.7-2.6,2.8-.2,5.1.3,7.1,1.5,1.9,1.2,3.5,2.9,4.6,5,1.1,2.1,1.6,4.4,1.5,6.9,0,2.5-.8,4.8-2.1,6.9-1.3,2.1-3.1,4-5.3,5.8-2.2,1.8-4.6,3.3-7.2,4.6-1,.5-2.2,1-3.6,1.6-1.4.6-2.6,1-3.6,1.3-1,.3-2.3.7-3.9,1.1Z"/>
  </g>
  <text class="cls-1" transform="translate(-3.4 270.8)"><tspan x="0" y="0">Periódico</tspan></text>
  <text class="cls-1" transform="translate(858.6 270.6)"><tspan x="0" y="0">Naranja</tspan></text>
</svg>