<?xml version="1.0" encoding="UTF-8"?>
<svg id="Capa_1" data-name="Capa 1" xmlns="http://www.w3.org/2000/svg" version="1.1" viewBox="0 0 1125.7 401.9">
  <defs>
    <style>
      .cls-1, .cls-2, .cls-3 {
        stroke-width: 0px;
      }

      .cls-1, .cls-4 {
        fill: #000;
      }

      .cls-2 {
        fill: #68b42e;
      }

      .cls-4 {
        stroke: #1d1d1b;
        stroke-miterlimit: 10;
        stroke-width: 1px;
      }

      .cls-5 {
        isolation: isolate;
      }

      .cls-3 {
        fill: #fff;
      }
    </style>
  </defs>
  <rect class="cls-2" x="337.2" y="94.5" width="410" height="76.9" transform="translate(-1.5 259.7) rotate(-26.9)"/>
  <rect class="cls-3" x="369.2" y="159.3" width="410" height="76.9" transform="translate(-27.4 281.2) rotate(-26.9)"/>
  <rect class="cls-4" x="407.2" y="227.5" width="411" height="86.5" transform="translate(-56.2 306.5) rotate(-26.9)"/>
  <polygon class="cls-3" points="323.3 200.9 323.3 401.9 847.4 401.9 847.4 139.3 759.9 139.3 759.9 324 410.8 324 410.8 139.3 323.3 139.3 323.3 200.9"/>
  <g>
    <path class="cls-1" d="M520.1,250.6c-.4-.9-.9-2.2-1.6-3.7-.7-1.5-1.4-3.1-2.1-4.7,1.2-2.7,2.2-5.2,3.1-7.6,1.5-3.9,2.7-7.5,3.7-10.8.8-2.6,1.4-4.9,1.8-7,.2-1.2.3-2.1.2-2.8,0-.5-.2-.9-.4-1.4-.3-.6-.7-1-1.1-1.3s-1-.4-1.7-.5c-.7,0-1.5,0-2.3.3-.9.2-1.8.6-2.8,1.1-1.4.7-2.7,1.5-4.1,2.5-1.4,1-3.2,2.5-5.5,4.4l-1.3-4.5c-.2-.9-.8-2.6-1.7-5.2,4.7-3.4,9.2-6.3,13.6-8.5,2-1,4.1-1.8,6.1-2.4,2-.6,4-.8,5.9-.7s3.5.6,4.9,1.4c1.3.8,2.3,1.9,3,3.2.5.9.8,1.8,1,2.8.2.9.3,2.1.3,3.5s-.2,3.6-.6,5.5c-.6,2.8-1.4,5.9-2.4,9.1-1,3.1-2.2,6.6-3.7,10.6l3.2-1.6c.8-.4,2.2-1.2,4.4-2.3,2.2-1.2,3.7-2,4.6-2.5.9-.5,1.9-1.1,3.1-1.9.4,1,.9,2.2,1.5,3.6.6,1.5,1.3,3.2,2.2,5.3-4.8,2.4-9.9,4.9-15.1,7.6-6.3,3.2-11.7,6-16.1,8.2v.3Z"/>
    <path class="cls-1" d="M556.5,181.5c3.1-1.6,6.2-2.4,9.3-2.4s6.1,1,9,3.3c2.9,2.2,5.4,5.4,7.4,9.4,1.6,3.1,2.7,6.5,3.4,10s.8,6.6.2,9.2c-.5,2.6-1.7,5-3.6,7.3-1.9,2.2-4.2,4.1-7,5.5-2.3,1.2-4.7,1.9-7.2,2.2-2.4.3-4.9,0-7.3-.9-2.4-.9-4.5-2.4-6.3-4.4s-3.4-4.3-4.7-7c-1.6-3.2-2.8-6.6-3.5-10.1s-.8-6.7-.2-9.4,1.8-5.2,3.6-7.3c1.9-2.1,4.1-3.8,6.7-5.2l.2-.2ZM560.7,190.1c-.9.5-1.6,1.1-2,2-.5,1.1-.8,2.3-.7,3.7,0,1.7.4,3.5,1,5.4.6,2.1,1.6,4.4,2.7,6.7,1,2,2.1,3.6,3.2,4.8,1.1,1.1,2.2,1.9,3.3,2.2,1.2.3,2.3.2,3.3-.3.6-.3,1.1-.7,1.5-1.2s.7-1.3,1-2.4c.2-1.1.2-2.4,0-4.1-.3-1.6-.7-3.3-1.2-4.9-.6-1.6-1.3-3.3-2.1-4.8-1.7-3.3-3.4-5.5-5.1-6.6-1.7-1.1-3.4-1.3-4.9-.5h0Z"/>
    <path class="cls-1" d="M597.5,211.4c-.4-.9-.9-2.2-1.6-3.7-.7-1.5-1.4-3.1-2.1-4.7,1.2-2.7,2.2-5.2,3.1-7.6,1.5-3.9,2.7-7.5,3.7-10.8.8-2.6,1.4-4.9,1.8-7,.2-1.2.3-2.1.2-2.8,0-.5-.2-.9-.4-1.4-.3-.6-.7-1-1.1-1.3-.5-.3-1-.4-1.7-.5-.7,0-1.5,0-2.3.3-.9.2-1.8.6-2.8,1.1-1.4.7-2.7,1.5-4.1,2.5-1.4,1-3.2,2.5-5.5,4.4l-1.3-4.5c-.2-.9-.8-2.6-1.7-5.2,4.7-3.4,9.2-6.3,13.6-8.5,2-1,4.1-1.8,6.1-2.4,2-.6,4-.8,5.9-.7s3.5.6,4.9,1.4c1.3.8,2.3,1.9,3,3.2.5.9.8,1.8,1,2.8.2.9.3,2.1.3,3.5s-.2,3.6-.6,5.5c-.6,2.8-1.4,5.9-2.4,9.1-1,3.1-2.2,6.6-3.7,10.6l3.2-1.6c.8-.4,2.2-1.2,4.4-2.3,2.2-1.2,3.7-2,4.6-2.5s1.9-1.1,3.1-1.9c.4,1,.9,2.2,1.5,3.6.6,1.5,1.3,3.2,2.2,5.3-4.8,2.4-9.9,4.9-15.1,7.6-6.3,3.2-11.7,6-16.1,8.2v.3Z"/>
    <path class="cls-1" d="M638.2,190l-1.7-2.8c-.5-.9-1-1.7-1.5-2.5-.5-.7-1.2-1.9-2.3-3.6,4.6-.9,8.2-2,10.8-3.3,1.4-.7,2.6-1.6,3.6-2.6s1.6-2.1,1.8-3.3c.2-1.1,0-2.2-.4-3.2-.7-1.4-1.9-2.2-3.6-2.2s-3.9.6-6.7,2-2.4,1.3-3.6,2c-1.1.7-2.7,1.7-4.6,3l-8-19.5c-.4-1-1-2.3-1.8-3.9,4.9-2.4,9.5-4.8,14-7,5.7-2.9,10.4-5.3,14.2-7.3.8,2.1,1.5,3.7,2.1,4.9l1.9,4-3.9,1.8-1.8.9-2.8,1.4c-1.2.6-2.7,1.3-4.5,2.2-.6.3-1.6.8-2.9,1.6l2.8,6.9c1.2-.8,2.2-1.3,2.9-1.7,3-1.5,5.9-2.4,8.7-2.6,2.8-.2,5.1.3,7.1,1.5,1.9,1.2,3.5,2.9,4.6,5s1.6,4.4,1.5,6.9c0,2.5-.8,4.8-2.1,6.9-1.3,2.1-3.1,4-5.3,5.8s-4.6,3.3-7.2,4.6c-1,.5-2.2,1-3.6,1.6-1.4.6-2.6,1-3.6,1.3s-2.3.7-3.9,1.1h-.2Z"/>
  </g>
  <g class="cls-5">
    <g class="cls-5">
      <path class="cls-3" d="M0,270.8l.6-8.3.8-16.3.4-11.5c0-1.2,0-2.5,0-3.7s0-2.5,0-4.6c2.9,0,5.2,0,6.9,0s4,0,6.9-.1c2.9,0,5.4-.1,7.4-.1,2.9,0,5.1.2,6.5.6,1.4.4,2.7.9,3.8,1.7,1.1.8,2.1,1.7,2.8,2.8.7,1.1,1.3,2.3,1.7,3.6.4,1.4.6,2.7.6,4.1,0,2.9-.7,5.6-2.1,8-1.4,2.4-3.4,4.2-6,5.4s-5.4,1.8-8.6,1.8-2.5-.1-4.1-.4c-.2-1-.5-2.5-1-4.5-.5-2-.9-3.4-1.2-4.4,1,.2,2,.3,3,.3,2.2,0,3.8-.5,4.9-1.6,1.1-1.1,1.6-2.3,1.6-3.9s-.1-1.4-.4-2c-.2-.6-.6-1-1.1-1.4-.5-.4-1.1-.6-1.7-.7s-1.3-.2-2.1-.2-1.6,0-2.4,0l-2.7.2c-.3,4.2-.5,8.8-.6,14-.3,9.3-.4,14.9-.4,16.8v4.2h-6.5c-.9,0-3.2,0-6.8,0Z"/>
      <path class="cls-3" d="M74.2,261c-.3,1.3-.8,4.4-1.6,9.4-2.5.5-4.6.8-6.3,1-1.7.2-3.4.2-5.2.2-2.6,0-5-.2-7.1-.5s-4-1-5.6-1.9c-1.6-.9-2.9-2-4-3.4-1.1-1.4-1.9-3-2.4-4.8-.6-1.9-.8-3.8-.8-5.8s.6-5.5,1.7-8.1c1.1-2.7,2.5-4.7,4.3-6.2,1.7-1.5,3.8-2.6,6-3.2s4.6-.9,7-.9,4.8.3,7.1.9c2.2.6,4.1,1.6,5.7,3,1.6,1.4,2.7,3,3.3,4.8.7,1.8,1,3.7,1,5.8s-.1,2.6-.4,4.1h-22.8c0,.4,0,.7,0,1,0,2.3.8,4,2.5,5.1,1.7,1.1,3.7,1.7,6.1,1.7s3.1-.2,4.9-.5c1.8-.3,4.1-.9,6.8-1.7ZM54.2,250.5h10.7c0-.4,0-.7,0-.9,0-1.1-.2-2.1-.6-2.9-.4-.8-1-1.4-1.7-1.8-.7-.4-1.6-.6-2.5-.6s-1.3.1-1.9.3-1.2.5-1.6.9-.9.9-1.2,1.4-.6,1-.7,1.5c-.2.5-.3,1.2-.5,2Z"/>
      <path class="cls-3" d="M81.3,270.8l1-14.4.3-8.3c0-1.5,0-3,0-4.6s0-3.5,0-5.9c2.6,0,4.7,0,6.2,0s3.9,0,6.2,0v3.7c.7-1,1.4-1.7,1.9-2.1.5-.5,1.2-.9,1.9-1.3.7-.4,1.4-.7,2.2-.8.8-.2,1.6-.3,2.4-.3s1.6.1,2.6.3c0,2.4,0,4.3.2,5.9l.2,5c-1.2-.3-2.3-.5-3.3-.5s-2.4.2-3.4.6c-.9.4-1.8,1-2.5,1.7s-1.3,1.7-1.7,2.9c-.4,1.1-.7,3-.9,5.5-.2,2.5-.3,5.3-.3,8.6s0,2.5.1,4.2c-2.1,0-4.2,0-6.3,0s-4.4,0-6.8,0Z"/>
      <path class="cls-3" d="M109.8,270.8c.3-2.6.5-4.8.7-6.5.2-1.7.3-3.9.4-6.6.1-2.7.3-5.6.4-8.8.1-3.2.2-7,.3-11.3,2.8,0,5.1,0,6.8,0s3.8,0,6.6,0c-.4,4.1-.6,7.7-.8,10.8-.2,3.1-.3,6.4-.3,9.9,0,6.2-.1,10.3-.1,12.6-2.6,0-4.8,0-6.7,0s-4.3,0-7.2,0ZM111.8,233.4c.1-2.6.2-4.6.2-6.1s0-1,0-1.8c2.6,0,4.8,0,6.6,0s4.6,0,6.4,0c0,.7-.1,1.2-.1,1.7l-.2,4c0,.6,0,1.3,0,2.1-2.1,0-4.2,0-6.2,0s-4.2,0-6.6,0Z"/>
      <path class="cls-3" d="M150.1,236.8c2.7,0,5.3.4,7.8,1.2,2.5.8,4.6,2,6.3,3.6,1.7,1.5,3,3.4,3.8,5.4s1.2,4.3,1.2,6.7-.4,4.5-1.1,6.6c-.7,2.1-2,4.1-3.7,5.9s-3.9,3.2-6.6,4.1c-2.7.9-5.5,1.4-8.5,1.4s-5.4-.4-7.9-1.2-4.7-2-6.4-3.5c-1.7-1.5-3-3.4-3.8-5.5-.9-2.1-1.3-4.4-1.3-6.8s.4-4.6,1.3-6.8c.8-2.1,2.2-4.1,4-5.8,1.8-1.7,4-3,6.7-4,2.7-.9,5.4-1.4,8.3-1.4ZM149.9,246.3c-1.4,0-2.6.4-3.7,1.1s-1.9,1.8-2.5,3.1c-.6,1.4-.8,2.9-.8,4.5,0,2.4.6,4.2,1.8,5.5,1.2,1.3,2.7,1.9,4.5,1.9s2.6-.4,3.7-1.1c1.1-.7,1.9-1.8,2.5-3.2.6-1.4.8-2.9.8-4.6s-.2-2.6-.7-3.6c-.4-1.1-1.1-2-2.1-2.6s-2.1-1-3.5-1ZM144.9,232.9l1.2-2.7c.3-.6.6-1.4,1-2.2l1-2.3c2.2,0,4.4,0,6.5,0s3.9,0,6.6,0l-2.8,3.2c-.2.2-.7.8-1.5,1.7-.8.9-1.4,1.7-2,2.3-2.1,0-3.8,0-5.1,0s-2.7,0-4.8,0Z"/>
      <path class="cls-3" d="M210.6,270.8c-2.3,0-4.3,0-5.8,0s-3.8,0-6.3,0l.2-4.1c-.8.8-1.6,1.5-2.2,2-.6.5-1.4,1-2.4,1.5-1,.5-2,.8-3.2,1.1-1.1.3-2.3.4-3.5.4-2.1,0-4-.4-5.8-1.1s-3.4-1.8-4.6-3.2-2.2-3.1-2.9-5c-.6-1.9-.9-3.9-.9-6,0-2.9.6-5.8,1.7-8.6s2.7-5,4.5-6.6c1.9-1.6,3.9-2.7,6.3-3.4,2.3-.7,4.9-1,7.6-1s3.9.2,6.3.5c.2-2.6.3-6.2.4-10.8,2.7,0,4.8,0,6.5,0s4.4,0,6.6,0c-.6,6.4-1.2,14.3-1.7,23.6-.5,9.3-.7,16.2-.7,20.8ZM199,245.7c-1.2-.3-2.2-.4-3.3-.4-2.1,0-3.9.4-5.4,1.2-1.5.8-2.6,2.1-3.4,3.8-.8,1.7-1.2,3.4-1.2,5.1s.2,2.4.7,3.4c.4,1,1.1,1.8,2.1,2.4.9.6,2,.9,3.1.9s2.3-.3,3.3-1c1-.7,1.8-1.7,2.4-3s1-2.8,1.3-4.6c.2-1.8.4-4.4.5-7.8Z"/>
      <path class="cls-3" d="M217.7,270.8c.3-2.6.5-4.8.7-6.5.2-1.7.3-3.9.4-6.6.1-2.7.3-5.6.4-8.8.1-3.2.2-7,.3-11.3,2.8,0,5.1,0,6.8,0s3.8,0,6.6,0c-.4,4.1-.6,7.7-.8,10.8-.2,3.1-.3,6.4-.3,9.9,0,6.2-.1,10.3-.1,12.6-2.6,0-4.8,0-6.7,0s-4.3,0-7.2,0ZM219.8,233.4c.1-2.6.2-4.6.2-6.1s0-1,0-1.8c2.6,0,4.8,0,6.6,0s4.6,0,6.4,0c0,.7-.1,1.2-.1,1.7l-.2,4c0,.6,0,1.3,0,2.1-2.1,0-4.2,0-6.2,0s-4.2,0-6.6,0Z"/>
      <path class="cls-3" d="M266.4,260.4c-.1.9-.4,2.5-.8,4.8l-.8,5.2c-3.4.8-6.7,1.2-10,1.2s-4.4-.2-6.2-.7c-2.1-.6-4-1.6-5.7-3-1.7-1.5-3-3.2-3.7-5.2-.9-2.4-1.4-5-1.4-7.9s.5-5.3,1.4-7.8c.9-2.5,2.3-4.5,4-6.2,1.8-1.6,3.8-2.7,5.9-3.3,2.2-.6,4.6-.8,7.2-.8s3.1,0,4.7.2c1.6.2,3.5.5,5.8,1.1v.7c.1.8.2,1.6.2,2.4,0,.8.1,2.1.2,3.9l.2,2.9c-3.1-1.1-5.8-1.6-8.2-1.6s-3.2.3-4.5,1c-1.3.7-2.2,1.6-2.9,2.9-.6,1.2-.9,2.7-.9,4.3s.3,3.1.8,4.2c.6,1.1,1.4,2,2.7,2.5,1.2.6,2.5.8,4,.8s1.6,0,2.6-.2c1-.2,1.9-.3,2.6-.5.7-.2,1.7-.5,2.8-.9Z"/>
      <path class="cls-3" d="M291.7,236.8c2.7,0,5.3.4,7.8,1.2,2.5.8,4.6,2,6.3,3.6,1.7,1.5,3,3.4,3.8,5.4s1.2,4.3,1.2,6.7-.4,4.5-1.1,6.6c-.7,2.1-2,4.1-3.7,5.9s-3.9,3.2-6.6,4.1c-2.7.9-5.5,1.4-8.5,1.4s-5.4-.4-7.9-1.2-4.7-2-6.4-3.5c-1.7-1.5-3-3.4-3.8-5.5-.9-2.1-1.3-4.4-1.3-6.8s.4-4.6,1.3-6.8c.8-2.1,2.2-4.1,4-5.8,1.8-1.7,4-3,6.7-4,2.7-.9,5.4-1.4,8.3-1.4ZM291.5,246.3c-1.4,0-2.6.4-3.7,1.1s-1.9,1.8-2.5,3.1c-.6,1.4-.8,2.9-.8,4.5,0,2.4.6,4.2,1.8,5.5,1.2,1.3,2.7,1.9,4.5,1.9s2.6-.4,3.7-1.1c1.1-.7,1.9-1.8,2.5-3.2.6-1.4.8-2.9.8-4.6s-.2-2.6-.7-3.6c-.4-1.1-1.1-2-2.1-2.6s-2.1-1-3.5-1Z"/>
    </g>
  </g>
  <g class="cls-5">
    <g class="cls-5">
      <path class="cls-3" d="M861.9,270.6l.7-6.8,1.3-23.2.4-9.3v-5.1c3.4,0,6.3,0,8.9,0s4.4,0,7.8,0l13.9,25.2,1.9,3.7c.2-3.6.5-8.8.8-15.3s.4-11.1.4-13.6c2.7,0,4.8,0,6.4,0s2.9,0,6.4,0l-.8,9.7-1.5,26.9-.2,7.8c-2.8,0-5.5,0-7.9,0s-4.9,0-8.5,0c-1.1-2.1-2-3.7-2.5-4.6l-5.5-9.3c-1.8-3-3.5-5.9-5-8.7-1-1.8-2-3.7-3.1-5.8l-.7,15.4-.3,13c-2.7,0-4.7,0-6.1,0s-3.4,0-6.7,0Z"/>
      <path class="cls-3" d="M919.2,246.9c.4-2.1.7-3.6.8-4.4.1-.8.3-2.1.5-3.8,6.2-1.4,11.6-2,16.1-2s4.9.3,7,.9c2.1.6,3.8,1.5,5,2.8,1.2,1.3,1.8,3.1,1.8,5.5s-.2,3.9-.5,8.2-.6,9.8-.7,16.7c-2.1,0-4.2,0-6.3,0s-4.2,0-6.5,0c.3-2.4.6-7.3,1-14.8-.8.4-1.5.7-1.9.8-.5.2-1.3.4-2.5.8-1.2.3-2.1.6-2.7.9-.7.2-1.2.5-1.7.9-.5.4-.8.7-1,1.1-.2.4-.3.8-.3,1.3,0,.7.3,1.4.9,1.9.6.5,1.5.8,2.8.8s.9,0,1.5-.1c.5,0,1.2-.3,2.1-.6-.6,1.7-1.4,4.1-2.2,7.3-1.9.3-3.6.5-5.3.5-2.7,0-4.9-.4-6.7-1.1-1.8-.7-3.2-2-4.1-3.6-1-1.7-1.4-3.3-1.4-5s.2-2,.5-3c.4-1,.9-1.9,1.7-2.9.8-.9,1.6-1.7,2.7-2.4,1-.7,2.4-1.3,4.2-1.9,1.8-.6,4-1.1,6.7-1.7,1.1-.2,2.2-.4,3.1-.7.9-.2,1.6-.5,2-.7.4-.2.7-.4,1-.7.2-.2.4-.5.5-.8.1-.3.2-.6.2-.9,0-.8-.3-1.5-1-1.9-.7-.4-1.7-.7-3.1-.7-3.7,0-8.3,1.1-13.8,3.2Z"/>
      <path class="cls-3" d="M956.4,270.6l1-14.4.3-8.3c0-1.5,0-3,0-4.6s0-3.5,0-5.9c2.6,0,4.7,0,6.2,0s3.9,0,6.2,0v3.7c.7-1,1.4-1.7,1.9-2.1.5-.5,1.2-.9,1.9-1.3s1.4-.7,2.2-.8c.8-.2,1.6-.3,2.4-.3s1.6.1,2.6.3c0,2.4,0,4.3.2,5.9l.2,5c-1.2-.3-2.3-.5-3.3-.5s-2.4.2-3.4.6c-.9.4-1.8,1-2.5,1.7s-1.3,1.7-1.7,2.9c-.4,1.1-.7,3-.9,5.5-.2,2.5-.3,5.3-.3,8.6s0,2.5.1,4.2c-2.1,0-4.2,0-6.3,0s-4.4,0-6.8,0Z"/>
      <path class="cls-3" d="M988.1,246.9c.4-2.1.7-3.6.8-4.4.1-.8.3-2.1.5-3.8,6.2-1.4,11.6-2,16.1-2s4.9.3,7,.9c2.1.6,3.8,1.5,5,2.8,1.2,1.3,1.8,3.1,1.8,5.5s-.2,3.9-.5,8.2-.6,9.8-.7,16.7c-2.1,0-4.2,0-6.3,0s-4.2,0-6.5,0c.3-2.4.6-7.3,1-14.8-.8.4-1.5.7-1.9.8-.5.2-1.3.4-2.5.8-1.2.3-2.1.6-2.7.9-.7.2-1.2.5-1.7.9-.5.4-.8.7-1,1.1-.2.4-.3.8-.3,1.3,0,.7.3,1.4.9,1.9.6.5,1.5.8,2.8.8s.9,0,1.5-.1c.5,0,1.2-.3,2.1-.6-.6,1.7-1.4,4.1-2.2,7.3-1.9.3-3.6.5-5.3.5-2.7,0-4.9-.4-6.7-1.1-1.8-.7-3.2-2-4.1-3.6-1-1.7-1.4-3.3-1.4-5s.2-2,.5-3c.4-1,.9-1.9,1.7-2.9.8-.9,1.6-1.7,2.7-2.4,1-.7,2.4-1.3,4.2-1.9,1.8-.6,4-1.1,6.7-1.7,1.1-.2,2.2-.4,3.1-.7.9-.2,1.6-.5,2-.7.4-.2.7-.4,1-.7.2-.2.4-.5.5-.8.1-.3.2-.6.2-.9,0-.8-.3-1.5-1-1.9-.7-.4-1.7-.7-3.1-.7-3.7,0-8.3,1.1-13.8,3.2Z"/>
      <path class="cls-3" d="M1025.1,270.6c.6-4.9,1.1-10.4,1.4-16.3s.5-11.6.6-16.9c2.6,0,4.9,0,6.7,0s4.3,0,6.3,0l-.3,4.4c.7-.8,1.3-1.4,1.9-1.9.5-.5,1.2-.9,1.9-1.4s1.6-.8,2.5-1.1c.9-.3,1.8-.5,2.8-.7,1-.2,2.1-.2,3.2-.2s3.1.2,4.6.5c1.5.3,2.7.8,3.7,1.4,1,.6,1.8,1.4,2.5,2.3.7.9,1.1,1.9,1.3,3,.2,1.1.3,2.2.3,3.3s0,2.6-.3,5.3l-.6,11.8c-.1,2.3-.2,4.5-.2,6.4-2.2,0-4.2,0-6.1,0s-4.9,0-7,0c.2-2,.4-4.9.6-8.8.2-3.9.3-6.6.3-8.2,0-2.4-.5-4.2-1.4-5.1-.9-1-2.1-1.4-3.6-1.4s-2.4.4-3.6,1.2c-1.1.8-2,2-2.6,3.6-.6,1.6-1,4.2-1.3,7.8s-.4,7.3-.5,11c-2.2,0-4.3,0-6.3,0s-4.5,0-7.1,0Z"/>
      <path class="cls-3" d="M1085.3,237.4l-.7,16.6-.3,15.3c0,2.1,0,3.4,0,3.7,0,2.5-.2,4.6-.6,6.4-.4,1.7-1.1,3.1-2.3,4.2s-2.5,1.8-4.2,2.2-3.6.6-5.7.6-2.8,0-4.7-.2-3.9-.4-6.2-.8c-.1-2.4-.4-5.6-.9-9.7,1.9.6,3.6.9,5.1.9s2.3-.2,3.2-.7c.8-.3,1.4-.8,1.8-1.4.4-.6.8-1.3,1-2.3.2-.8.4-2.3.6-4.3.3-4,.5-8.9.6-14.6.1-4.9.2-9.1.2-12.7v-3.3c2.6,0,4.8,0,6.7,0s4.2,0,6.5,0ZM1072.5,233.1c.2-3.2.3-5.7.4-7.7,1.8,0,3.9,0,6.4,0s4.4,0,6.4,0c-.2,3.2-.4,5.7-.4,7.7-2.1,0-4.2,0-6.4,0s-4.3,0-6.4,0Z"/>
      <path class="cls-3" d="M1094.6,246.9c.4-2.1.7-3.6.8-4.4.1-.8.3-2.1.5-3.8,6.2-1.4,11.6-2,16.1-2s4.9.3,7,.9c2.1.6,3.8,1.5,5,2.8,1.2,1.3,1.8,3.1,1.8,5.5s-.2,3.9-.5,8.2-.6,9.8-.7,16.7c-2.1,0-4.2,0-6.3,0s-4.2,0-6.5,0c.3-2.4.6-7.3,1-14.8-.8.4-1.5.7-1.9.8-.5.2-1.3.4-2.5.8-1.2.3-2.1.6-2.7.9-.7.2-1.2.5-1.7.9-.5.4-.8.7-1,1.1-.2.4-.3.8-.3,1.3,0,.7.3,1.4.9,1.9.6.5,1.5.8,2.8.8s.9,0,1.5-.1c.5,0,1.2-.3,2.1-.6-.6,1.7-1.4,4.1-2.2,7.3-1.9.3-3.6.5-5.3.5-2.7,0-4.9-.4-6.7-1.1-1.8-.7-3.2-2-4.1-3.6-1-1.7-1.4-3.3-1.4-5s.2-2,.5-3c.4-1,.9-1.9,1.7-2.9.8-.9,1.6-1.7,2.7-2.4,1-.7,2.4-1.3,4.2-1.9,1.8-.6,4-1.1,6.7-1.7,1.1-.2,2.2-.4,3.1-.7.9-.2,1.6-.5,2-.7.4-.2.7-.4,1-.7.2-.2.4-.5.5-.8.1-.3.2-.6.2-.9,0-.8-.3-1.5-1-1.9-.7-.4-1.7-.7-3.1-.7-3.7,0-8.3,1.1-13.8,3.2Z"/>
    </g>
  </g>
</svg>